<svg xmlns="http://www.w3.org/2000/svg" viewBox="0 0 50 50" id="Coding-App-Website-Ui--Streamline-Pixel.svg" height="50" width="50"><desc>Coding App Website Ui Streamline Icon: https://streamlinehq.com</desc><title>coding-app-website-ui</title><g><path d="m2.375 11.90625 45.25 0 0 35.703125 2.375 0 0 -45.234375 -2.375 0 0 7.140625 -45.25 0 0 -7.140625 -2.375 0 0 45.234375 2.375 0 0 -35.703125z" fill="#000000" stroke-width="1"></path><path d="M2.375 47.609375h45.25V50H2.375Z" fill="#000000" stroke-width="1"></path><path d="M33.328125 40.46875h9.53125v2.390625h-9.53125Z" fill="#000000" stroke-width="1"></path><path d="M33.328125 35.703125h9.53125v2.390625h-9.53125Z" fill="#000000" stroke-width="1"></path><path d="M7.140625 16.65625v14.296875h35.71875v-14.296875Zm33.328125 11.90625H23.8125v-2.375h-2.390625v2.375H9.515625v-9.515625h23.8125v2.375h2.390625v-2.375h4.75Z" fill="#000000" stroke-width="1"></path><path d="M28.578125 21.421875h4.75v2.375h-4.75Z" fill="#000000" stroke-width="1"></path><path d="M23.8125 23.796875h4.765625v2.390625h-4.765625Z" fill="#000000" stroke-width="1"></path><path d="M7.140625 40.46875h19.046875v2.390625H7.140625Z" fill="#000000" stroke-width="1"></path><path d="M7.140625 35.703125h19.046875v2.390625H7.140625Z" fill="#000000" stroke-width="1"></path><path d="M14.28125 4.75h2.390625v2.390625H14.28125Z" fill="#000000" stroke-width="1"></path><path d="M11.90625 21.421875h4.765625v4.765625H11.90625Z" fill="#000000" stroke-width="1"></path><path d="M9.515625 4.75h2.390625v2.390625H9.515625Z" fill="#000000" stroke-width="1"></path><path d="M4.765625 4.75h2.375v2.390625H4.765625Z" fill="#000000" stroke-width="1"></path><path d="M2.375 0h45.25v2.375H2.375Z" fill="#000000" stroke-width="1"></path></g></svg>