<svg xmlns="http://www.w3.org/2000/svg" viewBox="0 0 50 50" id="Ui-Design-Website--Streamline-Pixel.svg" height="50" width="50"><desc>Ui Design Website Streamline Icon: https://streamlinehq.com</desc><title>ui-design-website</title><g><path d="m47.625 11.9140625 -45.234375 0 0 -7.140625 -2.390625 0 0 40.46875 2.390625 0 0 -30.953124999999996 45.234375 0 0 30.953124999999996 2.375 0 0 -40.46875 -2.375 0 0 7.140625z" fill="#000000" stroke-width="1"></path><path d="M2.390625 45.2421875h45.234375v2.375H2.390625Z" fill="#000000" stroke-width="1"></path><path d="M40.484375 30.960937500000004h2.375v7.140625h-2.375Z" fill="#000000" stroke-width="1"></path><path d="M38.09375 38.1015625h2.390625v2.375h-2.390625Z" fill="#000000" stroke-width="1"></path><path d="M38.09375 28.5703125h2.390625v2.390625h-2.390625Z" fill="#000000" stroke-width="1"></path><path d="M30.953124999999996 40.4765625h7.140625v2.390625h-7.140625Z" fill="#000000" stroke-width="1"></path><path d="m38.09375 28.5703125 0 -2.375 -2.375 0 0 -9.515625 -28.578125 0 0 14.28125 4.765625 0 0 -2.390625 -2.375 0 0 -9.515625 23.8125 0 0 7.140625 -2.390625 0 0 2.375 7.140625 0z" fill="#000000" stroke-width="1"></path><path d="M28.578125 38.1015625h2.375v2.375h-2.375Z" fill="#000000" stroke-width="1"></path><path d="M28.578125 28.5703125h2.375v2.390625h-2.375Z" fill="#000000" stroke-width="1"></path><path d="M26.187500000000004 30.960937500000004h2.390625v7.140625h-2.390625Z" fill="#000000" stroke-width="1"></path><path d="M14.28125 7.1484375h2.390625v2.375H14.28125Z" fill="#000000" stroke-width="1"></path><path d="m9.53125 33.3359375 0 2.390625 -2.390625 0 0 2.375 16.671875 0 0 -7.140625 -2.375 0 0 -2.390625 -2.390625 0 0 -2.375 -2.375 0 0 2.375 -2.390625 0 0 2.390625 -2.375 0 0 2.375 -2.375 0z" fill="#000000" stroke-width="1"></path><path d="M9.53125 7.1484375h2.375v2.375H9.53125Z" fill="#000000" stroke-width="1"></path><path d="M4.765625 7.1484375h2.375v2.375H4.765625Z" fill="#000000" stroke-width="1"></path><path d="M2.390625 2.3828125h45.234375v2.390625H2.390625Z" fill="#000000" stroke-width="1"></path></g></svg>