<svg xmlns="http://www.w3.org/2000/svg" viewBox="0 0 50 50" id="Design-Drawing-Board--Streamline-Pixel.svg" height="50" width="50"><desc>Design Drawing Board Streamline Icon: https://streamlinehq.com</desc><title>design-drawing-board</title><g><path d="m47.6171875 40.46875 -2.375 0 0 7.140625 -2.375 0 0 -4.75 -2.390625 0 0 7.140625 7.140625 0 0 -9.53125z" fill="#000000" stroke-width="1"></path><path d="M42.8671875 30.953124999999996h2.375v9.515625h-2.375Z" fill="#000000" stroke-width="1"></path><path d="M38.1015625 35.703125h2.375v7.15625h-2.375Z" fill="#000000" stroke-width="1"></path><path d="M38.1015625 26.187500000000004h2.375v4.765625h2.390625v-7.140625h-2.390625V11.90625h2.390625v-9.53125h-16.671875V0h-2.375v2.375H7.1484375v9.53125H9.53125V4.765625h26.203125v7.140625h-2.390625v11.90625h-2.375v9.515625H4.7734375v-9.515625h-2.390625v11.890625h4.765625v7.15625H9.53125v-7.15625h2.390625v7.15625H9.53125v4.75H7.1484375v-4.75h-2.375V50h7.140625v-4.765625h14.28125V50h7.140625v-7.140625h-2.375v4.75h-2.390625v-4.75h-14.28125V40.46875h14.28125v2.390625h2.390625v-7.15625h2.375v7.15625h2.390625v-7.15625h2.375Zm-9.53125 11.90625h-14.28125v-2.390625h14.28125Z" fill="#000000" stroke-width="1"></path><path d="M28.5703125 16.65625h2.390625v4.765625h-2.390625Z" fill="#000000" stroke-width="1"></path><path d="M26.1953125 21.421875h2.375v4.765625h-2.375Z" fill="#000000" stroke-width="1"></path><path d="M26.1953125 14.28125h2.375v2.375h-2.375Z" fill="#000000" stroke-width="1"></path><path d="M26.1953125 7.140625h2.375v2.375h-2.375Z" fill="#000000" stroke-width="1"></path><path d="M14.2890625 26.187500000000004h11.90625v2.375h-11.90625Z" fill="#000000" stroke-width="1"></path><path d="M21.4296875 16.65625h2.390625v2.390625h-2.390625Z" fill="#000000" stroke-width="1"></path><path d="M19.0546875 21.421875h2.375v2.390625h-2.375Z" fill="#000000" stroke-width="1"></path><path d="M14.2890625 16.65625h2.390625v2.390625h-2.390625Z" fill="#000000" stroke-width="1"></path><path d="m26.1953125 14.28125 0 -4.765625 -2.375 0 0 2.390625 -2.390625 0 0 -4.765625 -2.375 0 0 4.765625 -2.375 0 0 -2.390625 -2.390625 0 0 2.390625 -2.375 0 0 2.375 14.28125 0z" fill="#000000" stroke-width="1"></path><path d="M11.9140625 21.421875h2.375v4.765625h-2.375Z" fill="#000000" stroke-width="1"></path><path d="M11.9140625 7.140625h2.375v2.375h-2.375Z" fill="#000000" stroke-width="1"></path><path d="M9.5234375 14.28125h2.390625v7.140625h-2.390625Z" fill="#000000" stroke-width="1"></path><path d="M4.7734375 11.90625h2.375v11.90625h-2.375Z" fill="#000000" stroke-width="1"></path></g></svg>